HIERARCHY
ROOT hip
{
	OFFSET 0.000000 0.000000 0.000000 
	CHANNELS 6 Xposition Yposition Zposition Xrotation Zrotation Yrotation
	JOINT abdomen
	{
		OFFSET 0.000000 3.402643 0.000000 
		CHANNELS 3 Xrotation Zrotation Yrotation
		JOINT chest
		{
			OFFSET 0.000000 8.438565 -0.680529 
			CHANNELS 3 Xrotation Zrotation Yrotation
			JOINT neck
			{
				OFFSET 0.000000 10.207942 -0.272212 
				CHANNELS 3 Xrotation Zrotation Yrotation
				JOINT head
				{
					OFFSET 0.000000 3.130431 0.000000 
					CHANNELS 3 Xrotation Zrotation Yrotation
					End Site
					{
						OFFSET 0.000000 3.130435 0.000000 
					}
				}
			}
			JOINT lCollar
			{
				OFFSET 3.470700 6.669187 -0.816635 
				CHANNELS 3 Yrotation Zrotation Xrotation
				JOINT lShldr
				{
					OFFSET 3.198488 0.000000 0.000000 
					CHANNELS 3 Zrotation Yrotation Xrotation
					JOINT lForeArm
					{
						OFFSET 10.139888 0.000000 0.000000 
						CHANNELS 3 Yrotation Zrotation Xrotation
						JOINT lHand
						{
							OFFSET 8.370511 0.000000 0.000000 
							CHANNELS 3 Zrotation Yrotation Xrotation
							End Site
							{
								OFFSET 4.083176 0.000000 0.000000 
							}
						}
					}
				}
			}
			JOINT rCollar
			{
				OFFSET -3.470700 6.669187 -0.816635 
				CHANNELS 3 Yrotation Zrotation Xrotation
				JOINT rShldr
				{
					OFFSET -3.198488 0.000000 0.000000 
					CHANNELS 3 Zrotation Yrotation Xrotation
					JOINT rForeArm
					{
						OFFSET -10.139888 0.000000 0.000000 
						CHANNELS 3 Yrotation Zrotation Xrotation
						JOINT rHand
						{
							OFFSET -8.370511 0.000000 0.000000 
							CHANNELS 3 Zrotation Yrotation Xrotation
							End Site
							{
								OFFSET -4.083176 0.000000 0.000000 
							}
						}
					}
				}
			}
		}
	}
	JOINT lThigh
	{
		OFFSET 5.308129 -1.633274 1.361059 
		CHANNELS 3 Xrotation Zrotation Yrotation
		JOINT lShin
		{
			OFFSET -2.041588 -20.007561 0.000000 
			CHANNELS 3 Xrotation Zrotation Yrotation
			JOINT lFoot
			{
				OFFSET 0.000000 -19.190928 -1.224953 
				CHANNELS 3 Xrotation Yrotation Zrotation
				End Site
				{
					OFFSET 0.000000 -2.449906 4.627600 
				}
			}
		}
	}
	JOINT rThigh
	{
		OFFSET -5.308129 -1.633274 1.361059 
		CHANNELS 3 Xrotation Zrotation Yrotation
		JOINT rShin
		{
			OFFSET 2.041588 -20.007561 0.000000 
			CHANNELS 3 Xrotation Zrotation Yrotation
			JOINT rFoot
			{
				OFFSET 0.000000 -19.190928 -1.224953 
				CHANNELS 3 Xrotation Yrotation Zrotation
				End Site
				{
					OFFSET 0.000000 -2.449906 4.627600 
				}
			}
		}
	}
}
MOTION
Frames: 16
Frame Time: 0.033333
-2.040493 51.744511 54.100353 -2.314453 0.341797 -0.722656 43.660206 -4.133220 -11.777675 -17.851563 14.384766 5.842270 51.063168 8.107644 2.471410 -83.525391 3.427734 -5.380860 2.000000 -2.000000 0.000000 -81.464844 -4.033203 -16.240921 -58.657753 -1.238906 -2.173594 -13.520862 58.758801 -10.574027 -2.000000 2.000000 0.000000 90.175781 -20.429688 -8.802235 51.604095 1.878367 -2.068162 16.430033 -55.674171 -23.378065 6.435194 10.087757 22.654612 33.053593 -4.416877 -2.926157 25.796808 15.037801 34.423882 -10.339622 -3.786596 -25.746267 11.018130 5.084193 0.934219 8.381707 -9.716695 -3.609037 
-2.418982 51.902786 55.776516 -3.017578 -0.361328 -2.636719 45.137390 -5.478447 -10.480319 -18.583984 14.267578 5.976562 51.063168 8.107644 2.471410 -81.611328 -1.064453 -5.468931 2.000000 -2.000000 0.000000 -83.935547 -0.371094 -15.888733 -58.833801 -1.239474 -2.183340 -14.029521 58.679317 -11.229489 -2.000000 2.000000 0.000000 87.470703 -20.048828 -6.347656 51.250732 1.698335 -2.000403 15.232300 -55.808178 -22.795195 -1.602183 14.207829 23.392662 45.404045 -3.668058 -3.700955 24.319931 14.398599 24.303011 -9.539042 -3.083942 -23.678377 14.895949 5.007360 1.422840 3.882156 -9.976864 -3.656514 
-2.753797 51.771889 57.451756 -3.535156 -0.722656 -4.726686 45.712883 -7.460581 -9.104663 -18.818359 13.417969 6.113282 51.063168 8.107644 2.471410 -80.244141 -4.316406 -6.064455 2.000000 -2.000000 0.000000 -85.605469 3.291016 -16.200609 -58.833801 -1.239474 -2.183340 -13.970194 59.059376 -11.047831 -2.000000 2.000000 0.000000 85.253906 -18.496092 -4.885910 51.426800 1.689155 -2.010716 14.705836 -56.111496 -22.025848 -10.712218 17.935253 22.393803 56.767807 -2.983296 -4.289173 21.283535 12.661347 11.804062 -9.049220 -2.370369 -21.415060 18.947338 4.893935 1.567330 0.565134 -9.378050 -3.219280 
-3.036854 51.792072 59.127216 -3.525390 -0.878906 -7.529446 45.550240 -10.024406 -7.361035 -18.701172 12.363283 6.308594 51.063168 8.107644 2.471410 -80.156250 -6.181640 -6.640626 2.000000 -2.000000 0.000000 -86.386719 6.103516 -17.059509 -58.481956 -1.248655 -2.173026 -13.307040 59.507656 -9.733706 -2.000000 2.000000 0.000000 83.730469 -15.556642 -3.195979 51.250717 1.708084 -1.999836 14.823545 -55.273304 -21.303761 -16.933428 19.970133 22.237509 61.850258 -2.437154 -4.504073 17.931562 10.894743 3.935989 -8.718515 -2.039736 -19.696960 21.597563 4.787829 1.952776 -1.369019 -8.414560 -3.070884 
-3.260027 51.954281 60.803505 -3.173828 -0.878906 -10.000150 44.701775 -12.845361 -5.532174 -18.242189 10.957032 6.308595 51.063168 8.107644 2.471410 -80.058594 -7.763671 -6.865235 2.000000 -2.000000 0.000000 -87.460938 9.033204 -19.090263 -58.142914 -1.567440 -2.271771 -12.209809 60.194035 -8.143836 -2.000000 2.000000 0.000000 81.767578 -12.070312 -1.738281 51.250732 1.698335 -2.000403 15.538630 -54.152740 -20.967030 -19.753265 20.540241 22.973372 58.555172 -3.022650 -4.465814 14.529995 10.697593 2.666114 -6.870259 -1.461524 -18.343260 21.771570 4.764260 1.992293 -2.782141 -7.260292 -3.412617 
-3.415217 52.214218 62.481533 -2.646484 -1.064453 -11.582212 43.251560 -14.843571 -3.729496 -17.753906 9.892580 6.367188 51.063168 8.107644 2.471410 -80.156250 -9.316405 -6.738282 2.000000 -2.000000 0.000000 -89.042969 12.197265 -21.005857 -57.954060 -1.267017 -2.152398 -11.819049 61.135952 -7.384748 -2.000000 2.000000 0.000000 79.931641 -8.837891 -1.231969 51.252037 1.857732 -2.049804 16.531645 -53.096592 -21.213474 -19.901516 19.675303 25.437672 49.600571 -3.556212 -4.035395 10.104958 10.015481 4.228142 -3.227414 -0.894152 -16.892284 17.728895 5.255965 1.399755 -4.425779 -6.550734 -3.723585 
-3.490906 52.422287 64.155952 -1.425781 -1.240234 -12.470704 41.257206 -16.173201 -2.120044 -17.285156 8.837891 6.220703 51.063168 8.107644 2.471410 -80.019531 -10.449219 -6.689453 2.000000 -2.000000 0.000000 -90.839844 15.205078 -23.298220 -57.791069 -1.576621 -2.261456 -10.636819 61.793549 -5.707028 -2.000000 2.000000 0.000000 78.916016 -6.044922 -2.167969 51.250488 1.688017 -1.991225 16.696577 -52.191116 -20.449322 -19.354679 18.181215 27.331163 37.787380 -4.227432 -3.259781 6.685983 7.501434 6.632742 -0.375775 0.094838 -16.319441 14.027321 5.378493 1.088036 -4.780015 -6.027088 -4.085844 
-3.487806 52.509701 65.821136 0.166016 -1.582031 -12.861329 38.605919 -17.266151 -0.190015 -16.806643 7.783204 6.064453 51.063168 8.107644 2.471410 -79.736328 -10.986327 -7.033112 2.000000 -2.000000 0.000000 -92.480469 18.476563 -24.469559 -57.778019 -1.266449 -2.142652 -10.777599 62.332764 -6.031104 -2.000000 2.000000 0.000000 77.636719 -3.369141 -3.339844 51.250507 1.678268 -1.991791 16.852606 -51.256180 -19.987745 -18.613131 16.083517 28.543028 26.158958 -4.780590 -2.454456 4.032737 5.031917 8.441367 2.823760 0.790135 -16.081928 8.951733 5.335161 0.972870 -4.299279 -5.590404 -3.752436 
-3.416176 52.493271 67.478554 1.757813 -1.943359 -13.096036 35.961231 -18.016542 1.562338 -16.318359 6.728516 5.888672 51.063168 8.107644 2.471410 -79.677734 -11.474607 -7.333984 2.000000 -2.000000 0.000000 -93.720703 20.966797 -25.318768 -57.777534 -1.226316 -2.125437 -10.730520 63.064873 -5.968142 -2.000000 2.000000 0.000000 76.835938 -1.386719 -4.961174 51.250507 1.678268 -1.991791 17.302851 -50.415028 -19.628717 -17.127199 13.160148 27.829462 10.999193 -5.227160 -1.177494 6.040399 3.710901 8.747168 6.537472 2.087385 -15.550481 2.287387 5.375265 0.399998 -2.777846 -5.308443 -3.701178 
-3.286237 52.383698 69.129143 3.339844 -2.285156 -12.998048 33.067955 -18.613005 3.415525 -15.820313 5.849610 5.917970 51.063168 8.107644 2.471410 -79.765625 -11.933593 -7.617188 2.000000 -2.000000 0.000000 -94.921875 24.335938 -27.070309 -58.307323 -1.387982 -2.213790 -10.620822 63.796154 -6.296159 -2.000000 2.000000 0.000000 76.328125 0.058594 -6.533204 51.426319 1.658770 -1.992926 17.450430 -49.812206 -19.238901 -14.686584 9.510205 25.612007 -5.529667 -5.095299 0.294689 9.161384 3.301236 9.970093 10.521913 3.044308 -15.306957 -3.365615 5.367991 -0.401726 0.380686 -4.373359 -3.290395 
-3.108241 52.287022 70.774185 4.570313 -2.470703 -12.705498 30.626041 -19.132860 4.817955 -15.507813 5.156250 5.781250 51.063168 8.107644 2.471410 -80.214844 -12.314453 -7.804817 2.000000 -2.000000 0.000000 -96.660156 29.160154 -30.219854 -59.371105 -1.650640 -2.188689 -10.456182 64.897987 -6.412560 -2.000000 2.000000 0.000000 76.767578 1.015625 -7.617187 52.306068 1.631229 -2.023863 16.609213 -49.082535 -18.789501 -13.394660 7.026052 24.128777 -15.418772 -5.113854 1.161151 8.148971 1.957610 10.829858 10.040112 2.554571 -15.674814 -3.365235 5.367005 -0.430968 0.019194 -4.379073 -3.738163 
-2.892416 52.242867 72.414833 5.087891 -2.470703 -12.197685 28.739588 -19.760820 6.097334 -15.166017 4.980469 5.947266 51.063168 8.107644 2.471410 -80.917969 -12.958983 -7.922112 2.000000 -2.000000 0.000000 -98.349609 33.828125 -34.027767 -60.061623 -1.323036 -2.442710 -9.728562 65.855804 -6.065532 -2.000000 2.000000 0.000000 77.812500 1.406250 -8.652344 53.186096 1.594507 -2.065114 15.695107 -48.918968 -18.258739 -12.514185 6.369943 22.987911 -15.401122 -4.977772 1.129716 10.835969 3.421643 11.240418 8.500504 1.189538 -16.646544 3.713584 5.377470 0.374696 -1.725913 -5.134729 -4.063256 
-2.649039 52.138332 74.052361 5.078125 -2.285156 -11.650391 28.178751 -21.123459 6.436203 -15.292970 6.171875 6.757813 51.063168 8.107644 2.471410 -82.500000 -14.179687 -7.941847 2.000000 -2.000000 0.000000 -99.716797 36.308594 -35.873123 -60.412991 -1.273723 -2.435800 -8.552747 66.652657 -5.147078 -2.000000 2.000000 0.000000 78.125000 0.673828 -10.986214 53.707115 1.435591 -2.191700 14.997740 -48.339970 -17.712948 -17.299780 8.051171 21.726858 -3.758856 -5.149196 0.150452 6.520918 4.871545 11.365484 6.332928 -0.595631 -18.084951 11.251737 5.208050 0.983036 -1.994072 -4.791025 -4.761373 
-2.388304 52.045200 75.687897 4.746094 -1.943359 -10.908203 29.168213 -22.557116 5.708297 -15.527344 8.232422 7.949029 51.063168 8.107644 2.471410 -84.824219 -15.791013 -7.529297 2.000000 -2.000000 0.000000 -101.025391 35.273438 -34.867409 -60.411556 -1.124085 -2.385834 -6.609907 67.824669 -2.636042 -2.000000 2.000000 0.000000 77.285156 -1.044922 -13.779295 53.707382 1.436159 -2.201446 14.646654 -49.144753 -17.835194 -18.775883 8.150949 20.767733 3.047780 -5.266699 -0.502702 6.706669 5.421329 11.389388 5.224334 -2.626987 -19.519915 17.433884 4.966130 1.647136 0.406731 -4.219676 -5.273671 
-2.120488 51.995522 77.322639 4.218750 -1.767578 -10.000302 30.417336 -22.930822 4.438782 -15.976563 9.970703 8.820049 51.063168 8.107644 2.471410 -86.757813 -17.099609 -5.683594 2.000000 -2.000000 0.000000 -102.402344 32.705082 -33.129490 -59.362514 -1.351030 -2.587757 -3.656217 68.457413 0.580838 -2.000000 2.000000 0.000000 76.093750 -2.978516 -15.586446 53.362091 1.624323 -2.073159 13.777176 -49.491776 -17.319242 -17.214058 6.970186 20.132410 3.244915 -5.250896 -0.528661 9.006621 6.579234 11.876534 5.270499 -4.217382 -21.059221 19.890102 4.527236 1.801396 5.200192 -2.418027 -8.324731 
-1.855807 52.004761 78.957855 3.671875 -1.425781 -9.062742 31.964441 -22.027451 3.048947 -16.289063 10.664063 8.917824 51.063168 8.107644 2.471410 -87.402344 -17.851561 -3.681640 2.000000 -2.000000 0.000000 -103.496094 31.044920 -32.167969 -58.833332 -1.189592 -2.166693 -2.797644 68.833954 1.976708 -2.000000 2.000000 0.000000 75.146484 -4.697266 -16.397284 52.827618 1.473452 -2.169941 13.631389 -50.436993 -17.027550 -14.760345 5.708147 19.128418 2.349277 -5.273581 -0.414455 9.022604 6.589378 10.727648 4.842004 -6.853859 -22.332901 23.237915 4.458360 1.734703 13.559735 -0.943860 -12.311659 
